<?xml version="1.0" encoding="iso-8859-1"?>
<!-- Uploaded to: SVG Repo, www.svgrepo.com, Generator: SVG Repo Mixer Tools -->
<svg fill="#000000" height="800px" width="800px" version="1.1" id="Layer_1" xmlns="http://www.w3.org/2000/svg" xmlns:xlink="http://www.w3.org/1999/xlink" 
	 viewBox="0 0 480 480" xml:space="preserve">
<g>
	<g>
		<g>
			<path d="M479.528,158.224l-32-88.936C446.384,66.12,443.376,64,440,64h-24V48h8c4.424,0,8-3.576,8-8V24c0-13.232-10.768-24-24-24
				h-48c-13.232,0-24,10.768-24,24v16c0,4.424,3.576,8,8,8h8v16h-80V48h8c4.424,0,8-3.576,8-8V24c0-13.232-10.768-24-24-24h-48
				c-13.232,0-24,10.768-24,24v16c0,4.424,3.584,8,8,8h8v16h-80V48h8c4.416,0,8-3.576,8-8V24c0-13.232-10.768-24-24-24H72
				C58.768,0,48,10.768,48,24v16c0,4.424,3.584,8,8,8h8v16H40c-3.376,0-6.384,2.12-7.528,5.288l-32,88.936
				C0.16,159.104,0,160.016,0,160.936V240v200c0,1.24,0.288,2.472,0.84,3.576l8,16C10.2,462.288,12.968,464,16,464h17.472
				c3.312,9.288,12.112,16,22.528,16h80c10.52,0,19.376-6.84,22.608-16.28c0.472,0.088,0.912,0.28,1.392,0.28h16
				c0.48,0,0.92-0.192,1.392-0.28C180.624,473.16,189.48,480,200,480h80c10.52,0,19.376-6.84,22.608-16.28
				c0.472,0.088,0.912,0.28,1.392,0.28h16c0.48,0,0.92-0.192,1.392-0.28C324.624,473.16,333.48,480,344,480h80
				c10.416,0,19.216-6.712,22.528-16H464c3.032,0,5.8-1.712,7.16-4.424l8-16c0.552-1.104,0.84-2.336,0.84-3.576V240v-79.064
				C480,160.016,479.84,159.104,479.528,158.224z M352,24c0-4.416,3.584-8,8-8c0,4.424,3.576,8,8,8s8-3.576,8-8h16
				c0,4.424,3.576,8,8,8s8-3.576,8-8c4.416,0,8,3.584,8,8v8h-8h-48h-8V24z M368,64V48h32v16H368z M400,80v16h-32V80H400z
				 M365.656,133.656C367.16,132.16,368,130.128,368,128v-16h32v16c0,2.128,0.84,4.16,2.344,5.656l27.312,27.312
				c1.496,1.496,2.344,3.552,2.344,5.656V232h-16v-8c0-22.056-17.944-40-40-40h-40v-17.376c0-2.104,0.848-4.168,2.344-5.656
				L365.656,133.656z M368,216c-4.424,0-8,3.576-8,8v8h-24v-32h40c13.232,0,24,10.768,24,24v8h-24v-8
				C376,219.576,372.424,216,368,216z M352,80v24v20.688l-16,16V136c0-1.576-0.472-3.128-1.344-4.44l-16-24
				c-1.488-2.224-3.984-3.56-6.656-3.56h-40V80H352z M298.896,152c-0.616-0.8-1.2-1.616-1.928-2.344L272,124.688V120h35.72
				L320,138.424V152H298.896z M320,168v24v40h-16v-64H320z M208,24c0-4.416,3.592-8,8-8c0,4.424,3.584,8,8,8s8-3.576,8-8h16
				c0,4.424,3.576,8,8,8s8-3.576,8-8c4.416,0,8,3.584,8,8v8h-8h-48h-8V24z M224,64V48h32v16H224z M256,80v24h-32V80H256z
				 M221.656,133.656C223.16,132.16,224,130.128,224,128v-8h32v8c0,2.128,0.84,4.16,2.344,5.656l27.312,27.312
				c1.496,1.496,2.344,3.552,2.344,5.656V232h-16v-8c0-22.056-17.944-40-40-40h-40v-17.376c0-2.104,0.856-4.168,2.344-5.656
				L221.656,133.656z M224,216c-4.416,0-8,3.576-8,8v8h-24v-32h40c13.232,0,24,10.768,24,24v8h-24v-8
				C232,219.576,228.416,216,224,216z M160,152v-13.576L172.28,120H208v4.688l-24.968,24.968c-0.728,0.728-1.312,1.544-1.928,2.344
				H160z M176,168v24v40h-16v-64H176z M208,80v24h-40c-2.672,0-5.168,1.336-6.656,3.56l-16,24c-0.872,1.312-1.344,2.864-1.344,4.44
				v4.688l-16-16V104V80H208z M64,24c0-4.416,3.592-8,8-8c0,4.424,3.584,8,8,8s8-3.576,8-8h16c0,4.424,3.584,8,8,8s8-3.576,8-8
				c4.408,0,8,3.584,8,8v8h-8H72h-8V24z M80,64V48h32v16H80z M112,80v16H80V80H112z M77.656,133.656C79.16,132.16,80,130.128,80,128
				v-16h32v16c0,2.128,0.84,4.16,2.344,5.656l27.312,27.312c1.488,1.496,2.344,3.552,2.344,5.656V232h-16v-8
				c0-22.056-17.944-40-40-40H48v-17.376c0-2.104,0.856-4.168,2.344-5.656L77.656,133.656z M80,216c-4.416,0-8,3.576-8,8v8H48v-32
				h40c13.232,0,24,10.768,24,24v8H88v-8C88,219.576,84.416,216,80,216z M16,162.336L45.624,80H64v24v20.688l-24.968,24.968
				C34.496,154.184,32,160.216,32,166.624V192v40H16V162.336z M144,448v8c0,4.416-3.592,8-8,8H56c-4.408,0-8-3.584-8-8v-16h96V448z
				 M288,448v8c0,4.416-3.584,8-8,8h-80c-4.408,0-8-3.584-8-8v-8v-8h96V448z M432,456c0,4.416-3.584,8-8,8h-80c-4.416,0-8-3.584-8-8
				v-8v-8h96V456z M464,438.112L459.056,448H448v-16c0-4.424-3.576-8-8-8H328c-4.424,0-8,3.576-8,8v12.688L316.688,448h-9.376
				L304,444.688V432c0-4.424-3.576-8-8-8H184c-4.416,0-8,3.576-8,8v12.688L172.688,448h-9.376L160,444.688V432c0-4.424-3.584-8-8-8
				H40c-4.416,0-8,3.576-8,8v16H20.944L16,438.112V248h24h80h32h32h80h32h32h80h32h24V438.112z M464,232h-16v-65.376
				c0-6.408-2.496-12.44-7.032-16.968L416,124.688V104V80h18.376L464,162.336V232z"/>
			<path d="M328,280h-32h-32h-80c-22.056,0-40,17.944-40,40v56c0,4.424,3.584,8,8,8h32h80h32c22.056,0,40-17.944,40-40v-56
				C336,283.576,332.424,280,328,280z M176,368h-16v-48c0-10.416,6.712-19.216,16-22.528V368z M256,368h-64v-16h32
				c4.416,0,8-3.576,8-8s-3.584-8-8-8h-32v-40h24v16c0,4.424,3.584,8,8,8s8-3.576,8-8v-16h24V368z M288,368h-16v-72h16V368z
				 M320,344c0,10.416-6.712,19.216-16,22.528V296h16V344z"/>
			<path d="M80,288c-26.472,0-48,21.528-48,48s21.528,48,48,48s48-21.528,48-48S106.472,288,80,288z M80,368
				c-17.648,0-32-14.352-32-32s14.352-32,32-32s32,14.352,32,32S97.648,368,80,368z"/>
			<path d="M88,328H72c-4.416,0-8,3.576-8,8s3.584,8,8,8h16c4.416,0,8-3.576,8-8S92.416,328,88,328z"/>
			<path d="M400,288c-26.472,0-48,21.528-48,48s21.528,48,48,48s48-21.528,48-48S426.472,288,400,288z M400,368
				c-17.648,0-32-14.352-32-32s14.352-32,32-32s32,14.352,32,32S417.648,368,400,368z"/>
			<path d="M408,328h-16c-4.424,0-8,3.576-8,8s3.576,8,8,8h16c4.424,0,8-3.576,8-8S412.424,328,408,328z"/>
		</g>
	</g>
</g>
</svg>