<?xml version="1.0" encoding="iso-8859-1"?>
<!-- Uploaded to: SVG Repo, www.svgrepo.com, Generator: SVG Repo Mixer Tools -->
<svg xmlns="http://www.w3.org/2000/svg" xmlns:xlink="http://www.w3.org/1999/xlink" version="1.1" id="Capa_1"  viewBox="0 0 490.643 490.643" xml:space="preserve" width="512" height="512">
<g id="XMLID_2111_">
	<g id="XMLID_1959_">
		<rect x="7.501" y="237.211" style="fill:#BC842C;" width="475.642" height="233.922"/>
	</g>
	<g id="XMLID_2008_">
		<rect x="7.501" y="354.172" style="fill:#F15A24;" width="475.642" height="116.961"/>
	</g>
	<g id="XMLID_2082_">
		<polyline style="fill:#FFFFFF;" points="482.821,409.009 280.821,409.009 280.821,307.009 482.821,307.009   "/>
	</g>
	<g id="XMLID_2096_">
		<rect x="412.966" y="307.388" style="fill:#F2F2F2;" width="70.177" height="101.366"/>
	</g>
	<g id="XMLID_2053_">
		<circle style="fill:#FBB03B;" cx="124.462" cy="354.172" r="77.974"/>
	</g>
	<g id="XMLID_2080_">
		<path style="fill:#009245;" d="M155.765,354.172c4.672-4.084,7.683-10.017,7.683-16.709c0-12.304-9.974-22.278-22.278-22.278    c-6.692,0-12.625,3.012-16.709,7.683c-4.084-4.672-10.016-7.683-16.709-7.683c-12.304,0-22.278,9.974-22.278,22.278    c0,6.692,3.012,12.625,7.683,16.709c-4.671,4.084-7.683,10.016-7.683,16.709c0,12.304,9.974,22.278,22.278,22.278    c6.692,0,12.625-3.012,16.709-7.683c4.084,4.671,10.016,7.683,16.709,7.683c12.304,0,22.278-9.974,22.278-22.278    C163.449,364.189,160.437,358.256,155.765,354.172z"/>
	</g>
	<g id="XMLID_1927_">
		<rect x="77.677" y="18.884" style="fill:#FBB03B;" width="38.987" height="31.19"/>
	</g>
	<g id="XMLID_1769_">
		<path style="fill:#8CC63F;" d="M147.854,237.211V190.67c0-20.598-5.375-40.839-15.595-58.723v0    c-10.219-17.884-15.595-38.125-15.595-58.723V50.074H77.677v23.149c0,20.598-5.375,40.839-15.595,58.723v0    c-10.219,17.884-15.595,38.125-15.595,58.723v46.542H147.854z"/>
	</g>
	<g id="XMLID_1906_">
		<rect x="46.487" y="182.63" style="fill:#FFFFFF;" width="31.19" height="54.582"/>
	</g>
	<g id="XMLID_1856_">
		<path style="fill:#009245;" d="M132.321,131.946c-10.219-17.884-15.5-38.126-15.5-58.723V50.009h-24v23.214    c0,20.598,5.781,40.839,16,58.723c10.219,17.884,16,38.125,16,58.723v46.339h23V190.67    C147.821,170.072,142.541,149.83,132.321,131.946z"/>
	</g>
	<g id="XMLID_1868_">
		<rect x="101.069" y="182.63" style="fill:#FFFFFF;" width="46.784" height="54.582"/>
	</g>
	<g id="XMLID_1964_">
		<rect x="225.828" y="18.884" style="fill:#FBB03B;" width="38.987" height="31.19"/>
	</g>
	<g id="XMLID_1963_">
		<path style="fill:#8CC63F;" d="M296.004,237.211V190.67c0-20.598-5.375-40.839-15.595-58.723v0    c-10.219-17.884-15.595-38.125-15.595-58.723V50.074h-38.987v23.149c0,20.598-5.375,40.839-15.595,58.723v0    c-10.219,17.884-15.595,38.125-15.595,58.723v46.542H296.004z"/>
	</g>
	<g id="XMLID_1962_">
		<rect x="194.638" y="182.63" style="fill:#FFFFFF;" width="31.19" height="54.582"/>
	</g>
	<g id="XMLID_1961_">
		<path style="fill:#009245;" d="M280.321,131.946c-10.219-17.884-15.5-38.126-15.5-58.723V50.009h-23v23.214    c0,20.598,5.281,40.839,15.5,58.723c10.219,17.884,15.5,38.125,15.5,58.723v46.339h23V190.67    C295.821,170.072,290.541,149.83,280.321,131.946z"/>
	</g>
	<g id="XMLID_1960_">
		<rect x="249.22" y="182.63" style="fill:#FFFFFF;" width="46.784" height="54.582"/>
	</g>
	<g id="XMLID_1979_">
		<rect x="373.978" y="18.884" style="fill:#FBB03B;" width="38.987" height="31.19"/>
	</g>
	<g id="XMLID_1978_">
		<path style="fill:#8CC63F;" d="M444.155,237.211V190.67c0-20.598-5.375-40.839-15.595-58.723v0    c-10.219-17.884-15.595-38.125-15.595-58.723V50.074h-38.987v23.149c0,20.598-5.375,40.839-15.595,58.723v0    c-10.219,17.884-15.595,38.125-15.595,58.723v46.542H444.155z"/>
	</g>
	<g id="XMLID_1977_">
		<rect x="342.789" y="182.63" style="fill:#FFFFFF;" width="31.19" height="54.582"/>
	</g>
	<g id="XMLID_1967_">
		<path style="fill:#009245;" d="M428.321,131.946c-10.219-17.884-15.5-38.126-15.5-58.723V50.009h-23v23.214    c0,20.598,5.281,40.839,15.5,58.723c10.219,17.884,15.5,38.125,15.5,58.723v46.339h23V190.67    C443.821,170.072,438.541,149.83,428.321,131.946z"/>
	</g>
	<g id="XMLID_1965_">
		<rect x="397.371" y="182.63" style="fill:#FFFFFF;" width="46.784" height="54.582"/>
	</g>
	<g id="XMLID_1537_">
		<polygon points="123.821,34.009 108.821,34.009 108.821,27.009 84.821,27.009 84.821,34.009 69.821,34.009 69.821,12.009     123.821,12.009   "/>
	</g>
	<g id="XMLID_1539_">
		<polygon points="271.821,34.009 256.821,34.009 256.821,27.009 232.821,27.009 232.821,34.009 217.821,34.009 217.821,12.009     271.821,12.009   "/>
	</g>
	<g id="XMLID_1613_">
		<polygon points="419.821,34.009 404.821,34.009 404.821,27.009 380.821,27.009 380.821,34.009 365.821,34.009 365.821,12.009     419.821,12.009   "/>
	</g>
	<path d="M451.655,229.711V190.67c0-21.865-5.734-43.458-16.583-62.444c-9.556-16.722-14.607-35.741-14.607-55.002V58.009h8.355v-15   h-70v15h7.657v15.215c0,19.261-5.051,38.28-14.606,55.002c-10.849,18.984-16.583,40.577-16.583,62.444v39.041h-31.784V190.67   c0-21.866-5.734-43.459-16.584-62.444c-9.556-16.724-14.606-35.743-14.606-55.002V58.009h8.507v-15h-71v15h8.507v15.215   c0,19.259-5.051,38.278-14.606,55.002c-10.85,18.985-16.584,40.578-16.584,62.444v39.041h-31.784V190.67   c0-21.867-5.734-43.46-16.583-62.444c-9.556-16.722-14.606-35.741-14.606-55.002V58.009h7.657v-15h-70v15h8.356v15.215   c0,19.261-5.051,38.28-14.607,55.002c-10.849,18.986-16.583,40.579-16.583,62.444v39.041H0v248.923h490.643V229.711H451.655z    M436.655,222.009v7.702h-31.834v-38.702h31.834v16h-15.834v15H436.655z M364.896,135.667   c10.849-18.984,16.583-40.577,16.583-62.443V58.009h23.987v15.215c0,21.866,5.734,43.459,16.583,62.443   c7.117,12.456,11.732,26.187,13.625,40.342h-45.852v53.702h-9v-53.702h-29.55C353.164,161.853,357.778,148.122,364.896,135.667z    M350.289,191.009h15.532v38.702h-15.532V191.009z M288.505,222.009v7.702h-32.684v-38.702h32.684v16h-15.684v15H288.505z    M216.745,135.667c10.849-18.986,16.583-40.578,16.583-62.443V58.009h23.986v15.215c0,21.865,5.734,43.457,16.583,62.443   c7.118,12.456,11.732,26.187,13.626,40.342h-46.702v53.702h-8v-53.702H203.12C205.013,161.854,209.627,148.123,216.745,135.667z    M202.138,191.009h15.684v38.702h-15.684V191.009z M140.354,222.009v7.702h-32.532v-38.702h32.532v16h-15.532v15H140.354z    M68.594,135.667c10.849-18.984,16.583-40.577,16.583-62.443V58.009h23.987v15.215c0,21.866,5.734,43.459,16.583,62.443   c7.118,12.455,11.732,26.186,13.625,40.342h-46.55v53.702h-8v-53.702H54.969C56.862,161.854,61.476,148.123,68.594,135.667z    M53.987,191.009h15.834v38.702H53.987V191.009z M15,463.634V244.711h460.643v55.298H272.821v117h202.821v46.625H15z    M475.643,315.009v87H287.821v-87H475.643z"/>
	<g id="XMLID_1645_">
		<rect x="303.821" y="339.009" style="fill:#FBB03B;" width="78" height="15"/>
	</g>
	<g id="XMLID_1646_">
		<rect x="303.821" y="371.009" width="16" height="15"/>
	</g>
	<g id="XMLID_1647_">
		<rect x="326.821" y="371.009" style="fill:#009245;" width="16" height="15"/>
	</g>
	<g id="XMLID_1649_">
		<rect x="350.821" y="371.009" width="15" height="15"/>
	</g>
	<g id="XMLID_1650_">
		<rect x="373.821" y="371.009" style="fill:#009245;" width="16" height="15"/>
	</g>
	<g id="XMLID_1653_">
		<rect x="397.821" y="371.009" width="15" height="15"/>
	</g>
	<g id="XMLID_1655_">
		<rect x="397.821" y="339.009" style="fill:#009245;" width="62" height="15"/>
	</g>
	<g id="XMLID_1656_">
		<rect x="428.821" y="371.009" style="fill:#FBB03B;" width="31" height="15"/>
	</g>
	<g id="XMLID_1724_">
		<path d="M141.17,400.659c-5.994,0-11.807-1.851-16.708-5.219c-4.902,3.367-10.716,5.219-16.709,5.219    c-16.42,0-29.778-13.358-29.778-29.778c0-5.994,1.851-11.807,5.219-16.708c-3.368-4.902-5.219-10.715-5.219-16.709    c0-16.42,13.358-29.778,29.778-29.778c5.994,0,11.807,1.85,16.709,5.219c4.901-3.368,10.714-5.219,16.708-5.219    c16.42,0,29.778,13.358,29.778,29.778c0,5.993-1.852,11.807-5.219,16.709c3.368,4.901,5.219,10.714,5.219,16.708    C170.948,387.301,157.59,400.659,141.17,400.659z M124.463,374.081l5.646,6.46c2.886,3.301,6.814,5.118,11.062,5.118    c8.148,0,14.778-6.63,14.778-14.778c0-4.248-1.817-8.176-5.118-11.062l-6.46-5.646l6.459-5.647    c3.301-2.886,5.119-6.815,5.119-11.063c0-8.148-6.63-14.778-14.778-14.778c-4.248,0-8.176,1.818-11.061,5.119l-5.647,6.461    l-5.647-6.46c-2.887-3.302-6.814-5.12-11.063-5.12c-8.148,0-14.778,6.63-14.778,14.778c0,4.248,1.818,8.176,5.12,11.063    l6.46,5.647l-6.461,5.647c-3.301,2.885-5.119,6.813-5.119,11.061c0,8.148,6.63,14.778,14.778,14.778    c4.247,0,8.177-1.818,11.063-5.119L124.463,374.081z"/>
	</g>
	<path d="M124.462,268.698c-47.131,0-85.475,38.344-85.475,85.475c0,47.13,38.344,85.474,85.475,85.474   c47.13,0,85.474-38.344,85.474-85.474C209.936,307.042,171.592,268.698,124.462,268.698z M124.462,424.647   c-36.21,0-66.117-27.454-70.028-62.638h15.388v-15H54.349c3.601-35.507,33.671-63.31,70.112-63.31s66.51,27.803,70.112,63.31   h-15.752v15h15.668C190.578,397.192,160.672,424.647,124.462,424.647z"/>
	<g id="XMLID_2112_">
		<rect x="30.821" y="261.009" width="16" height="15"/>
	</g>
	<g id="XMLID_2113_">
		<rect x="30.821" y="433.009" width="16" height="15"/>
	</g>
	<g id="XMLID_2115_">
		<rect x="443.821" y="261.009" width="16" height="15"/>
	</g>
	<g id="XMLID_2114_">
		<rect x="443.821" y="433.009" width="16" height="15"/>
	</g>
</g>















</svg>